<svg xmlns="http://www.w3.org/2000/svg" xmlns:xlink="http://www.w3.org/1999/xlink" style="margin:auto;background:0 0;display:block;z-index:1;position:relative;shape-rendering:auto" width="1920" height="1080" preserveAspectRatio="xMidYMid" viewBox="0 0 1920 1080"><g transform="translate(960,540) scale(1,1) translate(-960,-540)"><path id="path0" fill="none" stroke="none" d="M 1662.9588800446138 930.478977294623 c 0 19.544988044839812 -4.782284308843783 5.613985927773137 -10.396270236616921 5.613985927773137 S 1642.1663395713801 950.0239653394627 1642.1663395713801 930.478977294623 s 4.782284308843783 -5.613985927773137 10.396270236616921 -5.613985927773137 S 1662.9588800446138 910.9339892497832 1662.9588800446138 930.478977294623 z"/><circle cx="0" cy="0" r="5.17" fill="#84e1bc"><animateMotion begin="-8.446126997516135s" dur="10s" repeatCount="indefinite"><mpath xlink:href="#path0"/></animateMotion></circle><path id="path1" fill="none" stroke="none" d="M 1829.153418014856 56.780755980499166 c 0 28.814920051796815 -7.050459161609858 8.276625972324616 -15.327085133934474 8.276625972324616 S 1798.4992477469873 85.59567603229598 1798.4992477469873 56.780755980499166 s 7.050459161609858 -8.276625972324616 15.327085133934474 -8.276625972324616 S 1829.153418014856 27.96583592870235 1829.153418014856 56.780755980499166 z"/><circle cx="0" cy="0" r="4.663" fill="#84e1bc"><animateMotion begin="-2.335290638018146s" dur="10s" repeatCount="indefinite"><mpath xlink:href="#path1"/></animateMotion></circle><path id="path2" fill="none" stroke="none" d="M 60.23844300484172 462.70402686088846 c 0 21.964400080726193 -5.374268104858537 6.308923427442631 -11.683191532301167 6.308923427442631 S 36.87205994023939 484.66842694161465 36.87205994023939 462.70402686088846 s 5.374268104858537 -6.308923427442631 11.683191532301167 -6.308923427442631 S 60.23844300484172 440.73962678016227 60.23844300484172 462.70402686088846 z"/><circle cx="0" cy="0" r="5.983" fill="#f17eb8"><animateMotion begin="-6.458524230867663s" dur="10s" repeatCount="indefinite"><mpath xlink:href="#path2"/></animateMotion></circle><path id="path3" fill="none" stroke="none" d="M 563.8177775013884 886.8149081116403 c 0 26.898733053857796 -6.581604896156694 7.726231834618729 -14.307836730775422 7.726231834618729 S 535.2021040398375 913.7136411654981 535.2021040398375 886.8149081116403 s 6.581604896156694 -7.726231834618729 14.307836730775422 -7.726231834618729 S 563.8177775013884 859.9161750577825 563.8177775013884 886.8149081116403 z"/><circle cx="0" cy="0" r="7.749" fill="#f17eb8"><animateMotion begin="-8.691280213139589s" dur="10s" repeatCount="indefinite"><mpath xlink:href="#path3"/></animateMotion></circle><path id="path4" fill="none" stroke="none" d="M 1420.858454239065 32.63821884664799 c 0 31.767636105947776 -7.772932238689349 9.124746541070106 -16.897678779759456 9.124746541070106 S 1387.063096679546 64.40585495259576 1387.063096679546 32.63821884664799 s 7.772932238689349 -9.124746541070106 16.897678779759456 -9.124746541070106 S 1420.858454239065 0.8705827407002111 1420.858454239065 32.63821884664799 z"/><circle cx="0" cy="0" r="7.328" fill="#7edce2"><animateMotion begin="-8.865650143832134s" dur="10s" repeatCount="indefinite"><mpath xlink:href="#path4"/></animateMotion></circle><path id="path5" fill="none" stroke="none" d="M 920.4134512849599 936.0725412687143 c 0 26.46778783607729 -6.476160853508272 7.6024496975966676 -14.07861055110494 7.6024496975966676 S 892.2562301827501 962.5403291047916 892.2562301827501 936.0725412687143 s 6.476160853508272 -7.6024496975966676 14.07861055110494 -7.6024496975966676 S 920.4134512849599 909.604753432637 920.4134512849599 936.0725412687143 z"/><circle cx="0" cy="0" r="4.043" fill="#84e1bc"><animateMotion begin="-8.35750156503665s" dur="10s" repeatCount="indefinite"><mpath xlink:href="#path5"/></animateMotion></circle><path id="path6" fill="none" stroke="none" d="M 238.84058106196437 604.1207435044167 c 0 30.747606545861082 -7.523350537817072 8.83175932700265 -16.355109864819724 8.83175932700265 S 206.13036133232492 634.8683500502779 206.13036133232492 604.1207435044167 s 7.523350537817072 -8.83175932700265 16.355109864819724 -8.83175932700265 S 238.84058106196437 573.3731369585556 238.84058106196437 604.1207435044167 z"/><circle cx="0" cy="0" r="4.725" fill="#7edce2"><animateMotion begin="-2.3408242016099834s" dur="10s" repeatCount="indefinite"><mpath xlink:href="#path6"/></animateMotion></circle><path id="path7" fill="none" stroke="none" d="M 542.3659896542142 1056.723747905419 c 0 21.417663649432388 -5.240492169541967 6.1518821120710045 -11.392374281612971 6.1518821120710045 S 519.5812410909882 1078.1414115548514 519.5812410909882 1056.723747905419 s 5.240492169541967 -6.1518821120710045 11.392374281612971 -6.1518821120710045 S 542.3659896542142 1035.3060842559867 542.3659896542142 1056.723747905419 z"/><circle cx="0" cy="0" r="5.826" fill="#ac94fa"><animateMotion begin="-6.334023622421396s" dur="10s" repeatCount="indefinite"><mpath xlink:href="#path7"/></animateMotion></circle><path id="path8" fill="none" stroke="none" d="M 209.61439880258177 163.51130144979382 c 0 28.529637350527707 -6.980655947469544 8.194683068768597 -15.17533901623814 8.194683068768597 S 179.26372077010546 192.04093880032153 179.26372077010546 163.51130144979382 s 6.980655947469544 -8.194683068768597 15.17533901623814 -8.194683068768597 S 209.61439880258177 134.9816640992661 209.61439880258177 163.51130144979382 z"/><circle cx="0" cy="0" r="5.615" fill="#84e1bc"><animateMotion begin="-7.941757402406299s" dur="10s" repeatCount="indefinite"><mpath xlink:href="#path8"/></animateMotion></circle><path id="path9" fill="none" stroke="none" d="M 1691.477773252577 271.09286885688255 c 0 23.182216809050374 -5.672244538384666 6.658721849408087 -12.330966387792753 6.658721849408087 S 1666.8158404769913 294.2750856659329 1666.8158404769913 271.09286885688255 s 5.672244538384666 -6.658721849408087 12.330966387792753 -6.658721849408087 S 1691.477773252577 247.91065204783217 1691.477773252577 271.09286885688255 z"/><circle cx="0" cy="0" r="4.442" fill="#faca15"><animateMotion begin="-1.079560240276507s" dur="10s" repeatCount="indefinite"><mpath xlink:href="#path9"/></animateMotion></circle><path id="path10" fill="none" stroke="none" d="M 1453.7117425345446 439.0263570671746 c 0 24.213789246223218 -5.924650560246106 6.95502457072369 -12.879675130969797 6.95502457072369 S 1427.9523922726048 463.2401463133978 1427.9523922726048 439.0263570671746 s 5.924650560246106 -6.95502457072369 12.879675130969797 -6.95502457072369 S 1453.7117425345446 414.8125678209514 1453.7117425345446 439.0263570671746 z"/><circle cx="0" cy="0" r="5.421" fill="#7edce2"><animateMotion begin="-9.791950420620863s" dur="10s" repeatCount="indefinite"><mpath xlink:href="#path10"/></animateMotion></circle><path id="path11" fill="none" stroke="none" d="M 270.5684362140816 606.188275031875 c 0 21.90089250983261 -5.358729018363297 6.290681891122132 -11.649410909485429 6.290681891122132 S 247.26961439511075 628.0891675417076 247.26961439511075 606.188275031875 s 5.358729018363297 -6.290681891122132 11.649410909485429 -6.290681891122132 S 270.5684362140816 584.2873825220424 270.5684362140816 606.188275031875 z"/><circle cx="0" cy="0" r="4.365" fill="#ac94fa"><animateMotion begin="-6.672410998023626s" dur="10s" repeatCount="indefinite"><mpath xlink:href="#path11"/></animateMotion></circle><path id="path12" fill="none" stroke="none" d="M 1044.0075156969942 1035.3889509660903 c 0 33.124842578630485 -8.105014673494692 9.514582442798119 -17.619597116292812 9.514582442798119 S 1008.7683214644086 1068.5137935447208 1008.7683214644086 1035.3889509660903 s 8.105014673494692 -9.514582442798119 17.619597116292812 -9.514582442798119 S 1044.0075156969942 1002.2641083874598 1044.0075156969942 1035.3889509660903 z"/><circle cx="0" cy="0" r="6.916" fill="#ac94fa"><animateMotion begin="-3.644901678627177s" dur="10s" repeatCount="indefinite"><mpath xlink:href="#path12"/></animateMotion></circle><path id="path13" fill="none" stroke="none" d="M 1824.7548140224567 374.36233001907203 c 0 27.213788397191784 -6.658692905695861 7.8167264545125335 -14.475419360208395 7.8167264545125335 S 1795.8039753020398 401.5761184162638 1795.8039753020398 374.36233001907203 s 6.658692905695861 -7.8167264545125335 14.475419360208395 -7.8167264545125335 S 1824.7548140224567 347.14854162188027 1824.7548140224567 374.36233001907203 z"/><circle cx="0" cy="0" r="5.669" fill="#84e1bc"><animateMotion begin="-5.801893765426516s" dur="10s" repeatCount="indefinite"><mpath xlink:href="#path13"/></animateMotion></circle><path id="path14" fill="none" stroke="none" d="M 614.8317087849539 146.24160161836838 c 0 19.305059322953255 -4.723578344977923 5.545070231061042 -10.268648576038967 5.545070231061042 S 594.2944116328761 165.54666094132165 594.2944116328761 146.24160161836838 s 4.723578344977923 -5.545070231061042 10.268648576038967 -5.545070231061042 S 614.8317087849539 126.93654229541512 614.8317087849539 146.24160161836838 z"/><circle cx="0" cy="0" r="5.431" fill="#84e1bc"><animateMotion begin="-5.240775308485985s" dur="10s" repeatCount="indefinite"><mpath xlink:href="#path14"/></animateMotion></circle><path id="path15" fill="none" stroke="none" d="M 260.9623106354749 106.52316477994097 c 0 25.286689545339648 -6.187168718540551 7.263198060895431 -13.450366779435983 7.263198060895431 S 234.06157707660293 131.8098543252806 234.06157707660293 106.52316477994097 s 6.187168718540551 -7.263198060895431 13.450366779435983 -7.263198060895431 S 260.9623106354749 81.23647523460133 260.9623106354749 106.52316477994097 z"/><circle cx="0" cy="0" r="5.862" fill="#ac94fa"><animateMotion begin="-5.698971345872033s" dur="10s" repeatCount="indefinite"><mpath xlink:href="#path15"/></animateMotion></circle><path id="path16" fill="none" stroke="none" d="M 1905.9674515610586 504.9550800048878 c 0 31.91962839445359 -7.81012184119609 9.168403900534543 -16.978525741730632 9.168403900534543 S 1872.0104000775973 536.8747083993414 1872.0104000775973 504.9550800048878 s 7.81012184119609 -9.168403900534543 16.978525741730632 -9.168403900534543 S 1905.9674515610586 473.0354516104342 1905.9674515610586 504.9550800048878 z"/><circle cx="0" cy="0" r="7.079" fill="#faca15"><animateMotion begin="-5.706738351360308s" dur="10s" repeatCount="indefinite"><mpath xlink:href="#path16"/></animateMotion></circle><path id="path17" fill="none" stroke="none" d="M 1870.367435839449 348.45803115294734 c 0 29.339163206754353 -7.178731422929256 8.42720645300391 -15.605937875933167 8.42720645300391 S 1839.1555600875824 377.7971943597017 1839.1555600875824 348.45803115294734 s 7.178731422929256 -8.42720645300391 15.605937875933167 -8.42720645300391 S 1870.367435839449 319.118867946193 1870.367435839449 348.45803115294734 z"/><circle cx="0" cy="0" r="6.285" fill="#84e1bc"><animateMotion begin="-3.0852137738374874s" dur="10s" repeatCount="indefinite"><mpath xlink:href="#path17"/></animateMotion></circle><path id="path18" fill="none" stroke="none" d="M 962.610778908078 579.4700180532575 c 0 22.836509493406115 -5.587656578173837 6.559422939595374 -12.14707951776921 6.559422939595374 S 938.3166198725397 602.3065275466636 938.3166198725397 579.4700180532575 s 5.587656578173837 -6.559422939595374 12.14707951776921 -6.559422939595374 S 962.610778908078 556.6335085598514 962.610778908078 579.4700180532575 z"/><circle cx="0" cy="0" r="4.687" fill="#faca15"><animateMotion begin="-3.9994461166914808s" dur="10s" repeatCount="indefinite"><mpath xlink:href="#path18"/></animateMotion></circle><path id="path19" fill="none" stroke="none" d="M 1243.91136189801 497.02427454509416 c 0 36.45443660655495 -8.919702573944296 10.470955195499826 -19.390657769444122 10.470955195499826 S 1205.130046359122 533.4787111516491 1205.130046359122 497.02427454509416 s 8.919702573944296 -10.470955195499826 19.390657769444122 -10.470955195499826 S 1243.91136189801 460.5698379385392 1243.91136189801 497.02427454509416 z"/><circle cx="0" cy="0" r="6.143" fill="#ac94fa"><animateMotion begin="-8.997556197482595s" dur="10s" repeatCount="indefinite"><mpath xlink:href="#path19"/></animateMotion></circle><path id="path20" fill="none" stroke="none" d="M 1502.2781116432343 126.76967330865449 c 0 25.46700522100579 -6.231288511522692 7.314990861352726 -13.546279372875418 7.314990861352726 S 1475.1855528974834 152.23667852966028 1475.1855528974834 126.76967330865449 s 6.231288511522692 -7.314990861352726 13.546279372875418 -7.314990861352726 S 1502.2781116432343 101.3026680876487 1502.2781116432343 126.76967330865449 z"/><circle cx="0" cy="0" r="4.982" fill="#7edce2"><animateMotion begin="-5.170256344811193s" dur="10s" repeatCount="indefinite"><mpath xlink:href="#path20"/></animateMotion></circle><path id="path21" fill="none" stroke="none" d="M 1710.915264626456 293.16681178494986 c 0 29.282702305651668 -7.16491652159562 8.41098896013399 -15.57590548172961 8.41098896013399 S 1679.7634536629967 322.4495140906015 1679.7634536629967 293.16681178494986 s 7.16491652159562 -8.41098896013399 15.57590548172961 -8.41098896013399 S 1710.915264626456 263.8841094792982 1710.915264626456 293.16681178494986 z"/><circle cx="0" cy="0" r="4.57" fill="#84e1bc"><animateMotion begin="-3.656188230510571s" dur="10s" repeatCount="indefinite"><mpath xlink:href="#path21"/></animateMotion></circle><path id="path22" fill="none" stroke="none" d="M 873.8201308422205 664.0315084095178 c 0 32.56343541600013 -7.967649091148968 9.353327193957485 -17.320976285106454 9.353327193957485 S 839.1781782720076 696.5949438255179 839.1781782720076 664.0315084095178 s 7.967649091148968 -9.353327193957485 17.320976285106454 -9.353327193957485 S 873.8201308422205 631.4680729935176 873.8201308422205 664.0315084095178 z"/><circle cx="0" cy="0" r="5.077" fill="#f17eb8"><animateMotion begin="-4.303455956522608s" dur="10s" repeatCount="indefinite"><mpath xlink:href="#path22"/></animateMotion></circle><path id="path23" fill="none" stroke="none" d="M 374.409425191424 1061.147338708095 c 0 34.61592579051388 -8.469854182785308 9.942872301530581 -18.41272648431589 9.942872301530581 S 337.5839722227922 1095.763264498609 337.5839722227922 1061.147338708095 s 8.469854182785308 -9.942872301530581 18.41272648431589 -9.942872301530581 S 374.409425191424 1026.531412917581 374.409425191424 1061.147338708095 z"/><circle cx="0" cy="0" r="7.905" fill="#ac94fa"><animateMotion begin="-4.1281005471771s" dur="10s" repeatCount="indefinite"><mpath xlink:href="#path23"/></animateMotion></circle><path id="path24" fill="none" stroke="none" d="M 182.41097172597205 44.70892717630511 c 0 19.836275604316697 -4.853556796800894 5.697653631027137 -10.55121042782803 5.697653631027137 S 161.30855087031597 64.5452027806218 161.30855087031597 44.70892717630511 s 4.853556796800894 -5.697653631027137 10.55121042782803 -5.697653631027137 S 182.41097172597205 24.872651571988413 182.41097172597205 44.70892717630511 z"/><circle cx="0" cy="0" r="4.187" fill="#f17eb8"><animateMotion begin="-1.4927044227978659s" dur="10s" repeatCount="indefinite"><mpath xlink:href="#path24"/></animateMotion></circle><path id="path25" fill="none" stroke="none" d="M 1797.636927971887 756.9626837761497 c 0 21.081289082912036 -5.15818775432954 6.055263885517287 -11.213451639846827 6.055263885517287 S 1775.2100246921932 778.0439728590617 1775.2100246921932 756.9626837761497 s 5.15818775432954 -6.055263885517287 11.213451639846827 -6.055263885517287 S 1797.636927971887 735.8813946932377 1797.636927971887 756.9626837761497 z"/><circle cx="0" cy="0" r="4.935" fill="#7edce2"><animateMotion begin="-2.3500351656596052s" dur="10s" repeatCount="indefinite"><mpath xlink:href="#path25"/></animateMotion></circle><path id="path26" fill="none" stroke="none" d="M 966.5955873949089 809.4575699583892 c 0 24.142996647573636 -5.907328966959506 6.9346905264307255 -12.84201949339023 6.9346905264307255 S 940.9115484081284 833.6005666059629 940.9115484081284 809.4575699583892 s 5.907328966959506 -6.9346905264307255 12.84201949339023 -6.9346905264307255 S 966.5955873949089 785.3145733108155 966.5955873949089 809.4575699583892 z"/><circle cx="0" cy="0" r="6.014" fill="#7edce2"><animateMotion begin="-4.746679990744685s" dur="10s" repeatCount="indefinite"><mpath xlink:href="#path26"/></animateMotion></circle><path id="path27" fill="none" stroke="none" d="M 1580.0465135935412 1012.9049157638067 c 0 30.258626261663764 -7.40370642572624 8.691307543243846 -16.095013968970086 8.691307543243846 S 1547.856485655601 1043.1635420254704 1547.856485655601 1012.9049157638067 s 7.40370642572624 -8.691307543243846 16.095013968970086 -8.691307543243846 S 1580.0465135935412 982.646289502143 1580.0465135935412 1012.9049157638067 z"/><circle cx="0" cy="0" r="7.311" fill="#84e1bc"><animateMotion begin="-9.370567572288632s" dur="10s" repeatCount="indefinite"><mpath xlink:href="#path27"/></animateMotion></circle><path id="path28" fill="none" stroke="none" d="M 1092.5831845607186 507.8334679387384 c 0 20.174376651641523 -4.9362836488059045 5.794767761641714 -10.731051410447618 5.794767761641714 S 1071.1210817398232 528.0078445903799 1071.1210817398232 507.8334679387384 s 4.9362836488059045 -5.794767761641714 10.731051410447618 -5.794767761641714 S 1092.5831845607186 487.6590912870969 1092.5831845607186 507.8334679387384 z"/><circle cx="0" cy="0" r="5.783" fill="#84e1bc"><animateMotion begin="-4.435386180872662s" dur="10s" repeatCount="indefinite"><mpath xlink:href="#path28"/></animateMotion></circle><path id="path29" fill="none" stroke="none" d="M 1474.0054051608772 904.4389432242468 c 0 31.51031780626553 -7.709971378128799 9.05083596562946 -16.76080734375826 9.05083596562946 S 1440.4837904733608 935.9492610305124 1440.4837904733608 904.4389432242468 s 7.709971378128799 -9.05083596562946 16.76080734375826 -9.05083596562946 S 1474.0054051608772 872.9286254179813 1474.0054051608772 904.4389432242468 z"/><circle cx="0" cy="0" r="5.179" fill="#7edce2"><animateMotion begin="-9.304779747684684s" dur="10s" repeatCount="indefinite"><mpath xlink:href="#path29"/></animateMotion></circle></g></svg>