<svg xmlns="http://www.w3.org/2000/svg" xmlns:xlink="http://www.w3.org/1999/xlink" style="margin:auto;background:0 0;display:block;z-index:1;position:relative;shape-rendering:auto" width="1920" height="1080" preserveAspectRatio="xMidYMid" viewBox="0 0 1920 1080"><g transform="translate(960,540) scale(1,1) translate(-960,-540)"><defs><path id="path-csel2c1pzxg-1" fill="none" stroke="inherit" stroke-width="4.333" d="M-35 -35L35 -35L35 35L-35 35Z" transform="scale(0.3)"/><path id="path-csel2c1pzxg-2" fill="none" stroke="inherit" stroke-width="4.333" d="M0 -37A37 37 0 0 1 0 37A37 37 0 0 1 0 -37" transform="scale(0.3)"/><path id="path-csel2c1pzxg-3" fill="none" stroke="inherit" stroke-width="4.333" d="M0 -34.641L40 34.641L-40 34.641Z" transform="scale(0.3)"/></defs><path id="path0" fill="none" stroke="none" d="M 130.0545174024048 700.7701101061291 c 0 34.627891035826394 -8.472781849191563 9.946309127311837 -18.4190909765034 9.946309127311837 S 93.21633544939799 735.3980011419555 93.21633544939799 700.7701101061291 s 8.472781849191563 -9.946309127311837 18.4190909765034 -9.946309127311837 S 130.0545174024048 666.1422190703026 130.0545174024048 700.7701101061291 z"/><use x="0" y="0" stroke="#9061f9" xlink:href="#path-csel2c1pzxg-2"><animateMotion begin="-4.955374373421607s" calcMode="linear" dur="17.06762156347155s" keyPoints="1;0" keyTimes="0;1" repeatCount="indefinite"><mpath xlink:href="#path0"/></animateMotion></use><path id="path1" fill="none" stroke="none" d="M 192.3342938640422 421.54998570969076 c 0 56.369702324625855 -13.792586739004197 16.19129747622232 -29.983884215226517 16.19129747622232 S 132.36652543358917 477.9196880343166 132.36652543358917 421.54998570969076 s 13.792586739004197 -16.19129747622232 29.983884215226517 -16.19129747622232 S 192.3342938640422 365.1802833850649 192.3342938640422 421.54998570969076 z"/><use x="0" y="0" stroke="#f05252" xlink:href="#path-csel2c1pzxg-3"><animateMotion begin="-0.32482877826277234s" calcMode="linear" dur="10.881333118875311s" keyPoints="1;0" keyTimes="0;1" repeatCount="indefinite"><mpath xlink:href="#path1"/></animateMotion></use><path id="path2" fill="none" stroke="none" d="M 334.25222864568616 189.77687457972905 c 0 41.340473201906086 -10.115222166423829 11.874391238845364 -21.989613405269193 11.874391238845364 S 290.27300183514774 231.11734778163515 290.27300183514774 189.77687457972905 s 10.115222166423829 -11.874391238845364 21.989613405269193 -11.874391238845364 S 334.25222864568616 148.43640137782296 334.25222864568616 189.77687457972905 z"/><use x="0" y="0" stroke="#9061f9" xlink:href="#path-csel2c1pzxg-2"><animateMotion begin="-1.303119791384445s" calcMode="linear" dur="11.868363377710715s" keyPoints="0;1" keyTimes="0;1" repeatCount="indefinite"><mpath xlink:href="#path2"/></animateMotion></use><path id="path3" fill="none" stroke="none" d="M 411.73179548247873 1012.0698587645784 c 0 23.42575805033416 -5.7318344165711235 6.7286751846704504 -12.460509601241574 6.7286751846704504 S 386.81077627999554 1035.4956168149126 386.81077627999554 1012.0698587645784 s 5.7318344165711235 -6.7286751846704504 12.460509601241574 -6.7286751846704504 S 411.73179548247873 988.6441007142442 411.73179548247873 1012.0698587645784 z"/><use x="0" y="0" stroke="#c27803" xlink:href="#path-csel2c1pzxg-1"><animateMotion begin="-4.104011558635592s" calcMode="linear" dur="14.39111004288007s" keyPoints="1;0" keyTimes="0;1" repeatCount="indefinite"><mpath xlink:href="#path3"/></animateMotion></use><path id="path4" fill="none" stroke="none" d="M 520.7504267923464 642.6307539922162 c 0 64.68162148718416 -15.826354193672717 18.57876361865928 -34.405117812331994 18.57876361865928 S 451.94019116768237 707.3123754794004 451.94019116768237 642.6307539922162 s 15.826354193672717 -18.57876361865928 34.405117812331994 -18.57876361865928 S 520.7504267923464 577.949132505032 520.7504267923464 642.6307539922162 z"/><use x="0" y="0" stroke="#c27803" xlink:href="#path-csel2c1pzxg-1"><animateMotion begin="-3.7451373873976346s" calcMode="linear" dur="18.142257808875442s" keyPoints="0;1" keyTimes="0;1" repeatCount="indefinite"><mpath xlink:href="#path4"/></animateMotion></use><path id="path5" fill="none" stroke="none" d="M 630.101830820053 658.3370489490102 c 0 59.88205684005434 -14.651992631077123 17.2001652625688 -31.852157893645924 17.2001652625688 S 566.3975150327612 718.2191057890645 566.3975150327612 658.3370489490102 s 14.651992631077123 -17.2001652625688 31.852157893645924 -17.2001652625688 S 630.101830820053 598.4549921089558 630.101830820053 658.3370489490102 z"/><use x="0" y="0" stroke="#9061f9" xlink:href="#path-csel2c1pzxg-1"><animateMotion begin="-1.13676040349464s" calcMode="linear" dur="16.850688623228766s" keyPoints="1;0" keyTimes="0;1" repeatCount="indefinite"><mpath xlink:href="#path5"/></animateMotion></use><path id="path6" fill="none" stroke="none" d="M 699.3686997371818 406.8580230068557 c 0 34.66662124857909 -8.482258390609777 9.957433762889739 -18.439692153499514 9.957433762889739 S 662.4893154301827 441.5246442554348 662.4893154301827 406.8580230068557 s 8.482258390609777 -9.957433762889739 18.439692153499514 -9.957433762889739 S 699.3686997371818 372.19140175827664 699.3686997371818 406.8580230068557 z"/><use x="0" y="0" stroke="#c27803" xlink:href="#path-csel2c1pzxg-3"><animateMotion begin="-0.7431985117971951s" calcMode="linear" dur="14.798137589313766s" keyPoints="0;1" keyTimes="0;1" repeatCount="indefinite"><mpath xlink:href="#path6"/></animateMotion></use><path id="path7" fill="none" stroke="none" d="M 731.5437634514552 248.4546131979718 c 0 22.7843349774459 -5.574890473204848 6.544436642457865 -12.119327115662713 6.544436642457865 S 707.3051092201298 271.2389481754177 707.3051092201298 248.4546131979718 s 5.574890473204848 -6.544436642457865 12.119327115662713 -6.544436642457865 S 731.5437634514552 225.67027822052592 731.5437634514552 248.4546131979718 z"/><use x="0" y="0" stroke="#f05252" xlink:href="#path-csel2c1pzxg-1"><animateMotion begin="-0.18215489807680396s" calcMode="linear" dur="10.445184343324962s" keyPoints="0;1" keyTimes="0;1" repeatCount="indefinite"><mpath xlink:href="#path7"/></animateMotion></use><path id="path8" fill="none" stroke="none" d="M 901.2511660798566 192.27842016051545 c 0 47.57440738355277 -11.640546487465038 13.664989354850263 -25.3055358423153 13.664989354850263 S 850.640094395226 239.85282754406822 850.640094395226 192.27842016051545 s 11.640546487465038 -13.664989354850263 25.3055358423153 -13.664989354850263 S 901.2511660798566 144.70401277696268 901.2511660798566 192.27842016051545 z"/><use x="0" y="0" stroke="#c27803" xlink:href="#path-csel2c1pzxg-2"><animateMotion begin="-4.619534997409546s" calcMode="linear" dur="18.44191805595034s" keyPoints="1;0" keyTimes="0;1" repeatCount="indefinite"><mpath xlink:href="#path8"/></animateMotion></use><path id="path9" fill="none" stroke="none" d="M 1000.5193124500232 27.734123154123303 c 0 42.73308365592059 -10.455967277512483 12.274396369253786 -22.73036364676627 12.274396369253786 S 955.0585851564907 70.46720681004389 955.0585851564907 27.734123154123303 s 10.455967277512483 -12.274396369253786 22.73036364676627 -12.274396369253786 S 1000.5193124500232 -14.998960501797285 1000.5193124500232 27.734123154123303 z"/><use x="0" y="0" stroke="#f05252" xlink:href="#path-csel2c1pzxg-2"><animateMotion begin="-2.887003369090312s" calcMode="linear" dur="17.177158419804396s" keyPoints="0;1" keyTimes="0;1" repeatCount="indefinite"><mpath xlink:href="#path9"/></animateMotion></use><path id="path10" fill="none" stroke="none" d="M 1071.7442992601548 687.0973484456841 c 0 36.159488204681224 -8.847534347953916 10.386235973685034 -19.23377032163895 10.386235973685034 S 1033.2767586168768 723.2568366503654 1033.2767586168768 687.0973484456841 s 8.847534347953916 -10.386235973685034 19.23377032163895 -10.386235973685034 S 1071.7442992601548 650.9378602410029 1071.7442992601548 687.0973484456841 z"/><use x="0" y="0" stroke="#f05252" xlink:href="#path-csel2c1pzxg-3"><animateMotion begin="-1.7136889733505367s" calcMode="linear" dur="12.372910985813219s" keyPoints="1;0" keyTimes="0;1" repeatCount="indefinite"><mpath xlink:href="#path10"/></animateMotion></use><path id="path11" fill="none" stroke="none" d="M 1183.8969049235945 946.8900776591263 c 0 24.940185999382315 -6.102385936019076 7.16367044663109 -13.266056382650167 7.16367044663109 S 1157.364792158294 971.8302636585086 1157.364792158294 946.8900776591263 s 6.102385936019076 -7.16367044663109 13.266056382650167 -7.16367044663109 S 1183.8969049235945 921.949891659744 1183.8969049235945 946.8900776591263 z"/><use x="0" y="0" stroke="#f05252" xlink:href="#path-csel2c1pzxg-2"><animateMotion begin="-3.4712828184608746s" calcMode="linear" dur="18.749373889045955s" keyPoints="1;0" keyTimes="0;1" repeatCount="indefinite"><mpath xlink:href="#path11"/></animateMotion></use><path id="path12" fill="none" stroke="none" d="M 1247.7144882319649 258.22238728596153 c 0 21.467172897420383 -5.2526061344752 6.166102853514365 -11.418708987989564 6.166102853514365 S 1224.877070255986 279.6895601833819 1224.877070255986 258.22238728596153 s 5.2526061344752 -6.166102853514365 11.418708987989564 -6.166102853514365 S 1247.7144882319649 236.75521438854116 1247.7144882319649 258.22238728596153 z"/><use x="0" y="0" stroke="#9061f9" xlink:href="#path-csel2c1pzxg-3"><animateMotion begin="-1.1088925586310605s" calcMode="linear" dur="15.508336804659583s" keyPoints="1;0" keyTimes="0;1" repeatCount="indefinite"><mpath xlink:href="#path12"/></animateMotion></use><path id="path13" fill="none" stroke="none" d="M 1416.132003995675 286.0538547375116 c 0 32.88582927458589 -8.046532694845482 9.445929685253393 -17.492462380098875 9.445929685253393 S 1381.1470792354771 318.9396840120975 1381.1470792354771 286.0538547375116 s 8.046532694845482 -9.445929685253393 17.492462380098875 -9.445929685253393 S 1416.132003995675 253.1680254629257 1416.132003995675 286.0538547375116 z"/><use x="0" y="0" stroke="#c27803" xlink:href="#path-csel2c1pzxg-3"><animateMotion begin="-4.050307593172419s" calcMode="linear" dur="12.650851757761686s" keyPoints="0;1" keyTimes="0;1" repeatCount="indefinite"><mpath xlink:href="#path13"/></animateMotion></use><path id="path14" fill="none" stroke="none" d="M 1496.7877555560724 848.2157417289944 c 0 53.52876377964707 -13.097463477998751 15.375283213302883 -28.472746691301634 15.375283213302883 S 1439.8422621734692 901.7445055086415 1439.8422621734692 848.2157417289944 s 13.097463477998751 -15.375283213302883 28.472746691301634 -15.375283213302883 S 1496.7877555560724 794.6869779493474 1496.7877555560724 848.2157417289944 z"/><use x="0" y="0" stroke="#9061f9" xlink:href="#path-csel2c1pzxg-3"><animateMotion begin="-4.539976202406336s" calcMode="linear" dur="11.272489686210891s" keyPoints="1;0" keyTimes="0;1" repeatCount="indefinite"><mpath xlink:href="#path14"/></animateMotion></use><path id="path15" fill="none" stroke="none" d="M 1574.792195636821 108.88568203612917 c 0 36.100869079190915 -8.833191370440328 10.369398565299518 -19.202589935739848 10.369398565299518 S 1536.3870157653414 144.98655111532008 1536.3870157653414 108.88568203612917 s 8.833191370440328 -10.369398565299518 19.202589935739848 -10.369398565299518 S 1574.792195636821 72.78481295693825 1574.792195636821 108.88568203612917 z"/><use x="0" y="0" stroke="#f05252" xlink:href="#path-csel2c1pzxg-2"><animateMotion begin="-3.7102991895679995s" calcMode="linear" dur="15.527594032407778s" keyPoints="0;1" keyTimes="0;1" repeatCount="indefinite"><mpath xlink:href="#path15"/></animateMotion></use><path id="path16" fill="none" stroke="none" d="M 1674.5660787391384 168.75131618063148 c 0 46.55768479888091 -11.391773940151712 13.372952016699836 -24.76472595685155 13.372952016699836 S 1625.0366268254352 215.3090009795124 1625.0366268254352 168.75131618063148 s 11.391773940151712 -13.372952016699836 24.76472595685155 -13.372952016699836 S 1674.5660787391384 122.19363138175056 1674.5660787391384 168.75131618063148 z"/><use x="0" y="0" stroke="#c27803" xlink:href="#path-csel2c1pzxg-3"><animateMotion begin="-3.0397516768477386s" calcMode="linear" dur="16.350856123131273s" keyPoints="1;0" keyTimes="0;1" repeatCount="indefinite"><mpath xlink:href="#path16"/></animateMotion></use><path id="path17" fill="none" stroke="none" d="M 1782.2747434063692 405.0674578175729 c 0 52.0834360324501 -12.743819454748428 14.9601358816612 -27.703955336409628 14.9601358816612 S 1726.8668327335502 457.150893850023 1726.8668327335502 405.0674578175729 s 12.743819454748428 -14.9601358816612 27.703955336409628 -14.9601358816612 S 1782.2747434063692 352.9840217851228 1782.2747434063692 405.0674578175729 z"/><use x="0" y="0" stroke="#c27803" xlink:href="#path-csel2c1pzxg-2"><animateMotion begin="-3.357987067297765s" calcMode="linear" dur="19.56361724174355s" keyPoints="0;1" keyTimes="0;1" repeatCount="indefinite"><mpath xlink:href="#path17"/></animateMotion></use><path id="path18" fill="none" stroke="none" d="M 1829.8403155457222 976.5996098900018 c 0 28.444420097166088 -6.959804917391701 8.17020577259026 -15.130010689981962 8.17020577259026 S 1799.5802941657585 1005.044029987168 1799.5802941657585 976.5996098900018 s 6.959804917391701 -8.17020577259026 15.130010689981962 -8.17020577259026 S 1829.8403155457222 948.1551897928357 1829.8403155457222 976.5996098900018 z"/><use x="0" y="0" stroke="#9061f9" xlink:href="#path-csel2c1pzxg-2"><animateMotion begin="-1.8801331174069114s" calcMode="linear" dur="10.380379294967542s" keyPoints="1;0" keyTimes="0;1" repeatCount="indefinite"><mpath xlink:href="#path18"/></animateMotion></use></g></svg>